<svg id="Logo_FBL" xmlns="http://www.w3.org/2000/svg" viewBox="0 0 500 274.37"><defs><style>.cls-1{fill:#b20838;}.cls-2{fill:#5f6062;}.cls-3{fill:#231f20;fill-rule:evenodd;}</style></defs><title>logo</title><path id="FBL" class="cls-1" d="M33.34,270.15h-15v6.07H32.24v6.29H18.36v13.91H10V263.85H33.34Zm30.46,14q0-6.06-3.51-9.56t-9.94-3.5q-6.35,0-9.89,3.47t-3.56,9.59q0,6.06,3.53,9.55t9.92,3.48q6.39,0,9.92-3.48t3.53-9.55m-9.69,6a3.7,3.7,0,0,1-1.65,1.21,5.85,5.85,0,0,1-2,.37,5.94,5.94,0,0,1-2.22-.4,4,4,0,0,1-1.67-1.24,6,6,0,0,1-1.1-2.38,14.31,14.31,0,0,1-.37-3.49,14.08,14.08,0,0,1,.42-3.74,6.26,6.26,0,0,1,1.15-2.33,4.11,4.11,0,0,1,1.7-1.23,6,6,0,0,1,2-.3,6.09,6.09,0,0,1,2.12.36,3.8,3.8,0,0,1,1.69,1.28,6.37,6.37,0,0,1,1.09,2.34,14.2,14.2,0,0,1,.4,3.62,14,14,0,0,1-.39,3.67,6.27,6.27,0,0,1-1.15,2.26m40-9.68c0-3.09-.75-5.39-2.23-6.94a8.28,8.28,0,0,0-6.22-2.32,10.43,10.43,0,0,0-4.3.88,20.29,20.29,0,0,0-4,2.51v-2.71h-7.9v24.56h7.9V279a11.43,11.43,0,0,1,2.4-1.11,7.2,7.2,0,0,1,2.17-.36,5.89,5.89,0,0,1,2.35.38,2.62,2.62,0,0,1,1.28,1.18,6.31,6.31,0,0,1,.53,2.18,29,29,0,0,1,.15,3v12.18h7.89Zm31.12-18.06h-7.89v10.46a26,26,0,0,0-2.89-1.19,11.73,11.73,0,0,0-3.62-.47,10.62,10.62,0,0,0-4.24.91,10.32,10.32,0,0,0-3.6,2.54,12.73,12.73,0,0,0-2.48,4.15,15.64,15.64,0,0,0-.91,5.55c0,3.91.9,7,2.69,9.31a8.63,8.63,0,0,0,7.16,3.46,10.08,10.08,0,0,0,4.09-.79,17.08,17.08,0,0,0,3.8-2.45v2.56h7.89Zm-7.89,27.28a8,8,0,0,1-2.12,1.07,7.06,7.06,0,0,1-2.27.4,4.7,4.7,0,0,1-4-1.64q-1.24-1.62-1.24-5.25a8.41,8.41,0,0,1,1.54-5.37,5.62,5.62,0,0,1,4.66-1.93,9.31,9.31,0,0,1,1.67.15,6.78,6.78,0,0,1,1.75.5v12.07m36.67-1a6.45,6.45,0,0,0-1.48-4.34,8.67,8.67,0,0,0-4.59-2.54c-.94-.23-1.86-.43-2.79-.58s-1.79-.31-2.59-.47a8.22,8.22,0,0,1-2.78-.92,1.58,1.58,0,0,1-.59-1.34c0-.65.43-1.14,1.3-1.49a8.79,8.79,0,0,1,3.2-.52,14.21,14.21,0,0,1,4.54.75,15.31,15.31,0,0,1,4,2h.68v-6.22a22.11,22.11,0,0,0-4-1.2,25.14,25.14,0,0,0-5.28-.55c-3.88,0-6.93.78-9.17,2.35a7,7,0,0,0-3.36,5.9,6.77,6.77,0,0,0,1.61,4.6,9.71,9.71,0,0,0,5,2.72,24.69,24.69,0,0,0,2.73.56c1,.15,1.78.29,2.37.43a8,8,0,0,1,2.49.78,1.4,1.4,0,0,1,.66,1.29,1.63,1.63,0,0,1-1.12,1.52,8.48,8.48,0,0,1-3.43.51,15.23,15.23,0,0,1-3.32-.35,19.48,19.48,0,0,1-2.78-.87,13,13,0,0,1-2.2-1.06c-.52-.33-1-.63-1.36-.91H131v6.48a23.24,23.24,0,0,0,4.29,1.36,27.08,27.08,0,0,0,5.94.6c4,0,7.07-.77,9.34-2.32a7.11,7.11,0,0,0,3.41-6.14m48.84-2.18A7.35,7.35,0,0,0,201,281.2a9.11,9.11,0,0,0-5.06-2.63v-.18a8.19,8.19,0,0,0,3.52-2.8,7.15,7.15,0,0,0,1.25-4.17,7.23,7.23,0,0,0-.91-3.62,6.52,6.52,0,0,0-2.77-2.53,11.55,11.55,0,0,0-3.62-1.15,45.48,45.48,0,0,0-5.76-.27H175v32.57h14.22a23.6,23.6,0,0,0,5.84-.61,12.4,12.4,0,0,0,4.23-2.05,8.78,8.78,0,0,0,2.62-3.09,9.23,9.23,0,0,0,.95-4.22m-10.76-13.39a4.35,4.35,0,0,1-.35,1.84,2.73,2.73,0,0,1-1.49,1.31,5.94,5.94,0,0,1-2.2.43c-.94.05-2.07.07-3.4.07h-1.31v-6.88h.79l3.84,0a7.19,7.19,0,0,1,2.28.39,2.57,2.57,0,0,1,1.44,1.2,3.59,3.59,0,0,1,.4,1.62m2,13.26a4.27,4.27,0,0,1-.5,2.08,3.41,3.41,0,0,1-1.79,1.46,7.62,7.62,0,0,1-2.82.57h-5.68v-8.11h1.84c1.25,0,2.45,0,3.59,0a9.92,9.92,0,0,1,2.71.31,3.6,3.6,0,0,1,2,1.25,4,4,0,0,1,.61,2.4m29.41,10.1h7.81V279.71c0-2.94-1-5.11-3-6.49s-5.23-2.06-9.71-2.06a34.38,34.38,0,0,0-5.63.45c-1.88.3-3.22.56-4.05.77v5.93h.72c.64-.25,1.7-.6,3.17-1.06a14,14,0,0,1,4.15-.69,12,12,0,0,1,4.9.78,2.81,2.81,0,0,1,1.66,2.8v.14c-2.32.13-4.55.33-6.71.61a19.22,19.22,0,0,0-5.42,1.4A8.11,8.11,0,0,0,208,285a7.48,7.48,0,0,0-1.2,4.4,7.2,7.2,0,0,0,2.36,5.53,8.36,8.36,0,0,0,5.87,2.16,13.71,13.71,0,0,0,2.73-.25,10.67,10.67,0,0,0,2.4-.77A12.15,12.15,0,0,0,222,295l1.57-1.16Zm0-6.42a7.64,7.64,0,0,1-2.13,1.26,6.5,6.5,0,0,1-2.4.48,8.32,8.32,0,0,1-2.19-.21,3,3,0,0,1-1.19-.64A1.84,1.84,0,0,1,215,290a4.62,4.62,0,0,1-.13-1.23,2.67,2.67,0,0,1,.62-1.87,3.9,3.9,0,0,1,1.8-1.08,16.82,16.82,0,0,1,2.82-.54c1.24-.15,2.4-.27,3.46-.35V290m23.16-27.61h-8.33v6h8.33Zm-.22,9.47h-7.89v24.56h7.89Zm15.31-9.47H253.9v34h7.89Zm15.31,0h-7.89v34h7.89Zm31.6,20.45c0-3.79-1-6.69-3-8.72s-5-3-9-3q-6.48,0-10.22,3.56c-2.49,2.37-3.72,5.58-3.72,9.63s1.31,7.26,3.93,9.48,6.4,3.32,11.33,3.32a26.2,26.2,0,0,0,5.22-.48,30.53,30.53,0,0,0,5-1.56v-6.32h-.88a15,15,0,0,1-3.7,1.92,13.35,13.35,0,0,1-4.83.91,9.77,9.77,0,0,1-6-1.54,5.7,5.7,0,0,1-2.2-4.42h18Zm-18-1.86a5.09,5.09,0,0,1,1.64-3.79A5.83,5.83,0,0,1,296,276a4.68,4.68,0,0,1,3.61,1.26,5.51,5.51,0,0,1,1.23,3.71Zm39.3,9.84h-.65a6.8,6.8,0,0,1-1.39.48,6.31,6.31,0,0,1-1.6.27,4.46,4.46,0,0,1-2.26-.46A2.43,2.43,0,0,1,323,289.9a4.72,4.72,0,0,1-.34-1.73c0-.64,0-1.39,0-2.26V277.2H330v-5.34h-7.35v-7h-7.89v7h-3.24v5.34h3.24v11.48c0,3,.74,5.12,2.25,6.36s3.77,1.86,6.82,1.86a28.69,28.69,0,0,0,3.49-.18,23.14,23.14,0,0,0,2.68-.52Zm43.94-.7H358.81V263.85h-8.4v32.57H373.9Zm19.49,6.3h7.8V279.71c0-2.94-1-5.11-3-6.49s-5.23-2.06-9.7-2.06a34.59,34.59,0,0,0-5.64.45c-1.87.3-3.22.56-4.05.77v5.93h.72c.65-.25,1.69-.6,3.18-1.06a13.91,13.91,0,0,1,4.15-.69,12,12,0,0,1,4.89.78,2.8,2.8,0,0,1,1.67,2.8v.14c-2.32.13-4.55.33-6.72.61a19.15,19.15,0,0,0-5.41,1.4,8,8,0,0,0-3.42,2.69,7.48,7.48,0,0,0-1.21,4.4,7.21,7.21,0,0,0,2.37,5.53,8.34,8.34,0,0,0,5.86,2.16,13.81,13.81,0,0,0,2.74-.25,11.08,11.08,0,0,0,2.41-.77,14.63,14.63,0,0,0,1.77-1.07l1.57-1.16Zm0-6.42a7.7,7.7,0,0,1-2.14,1.26,6.45,6.45,0,0,1-2.39.48,8.32,8.32,0,0,1-2.19-.21,2.91,2.91,0,0,1-1.19-.64,1.78,1.78,0,0,1-.66-.92,4.2,4.2,0,0,1-.14-1.23,2.72,2.72,0,0,1,.62-1.87,3.86,3.86,0,0,1,1.82-1.08,16.25,16.25,0,0,1,2.81-.54c1.24-.15,2.39-.27,3.46-.35V290m30.75.82h-.66a9.21,9.21,0,0,1-3,.75,4.44,4.44,0,0,1-2.26-.46,2.45,2.45,0,0,1-1.09-1.21,4.72,4.72,0,0,1-.34-1.73c0-.64,0-1.39,0-2.26V277.2h7.35v-5.34h-7.35v-7H408.9v7h-3.25v5.34h3.25v11.48c0,3,.74,5.12,2.24,6.36s3.77,1.86,6.82,1.86a28.46,28.46,0,0,0,3.49-.18,23.74,23.74,0,0,0,2.69-.52ZM454,284.15q0-6.06-3.52-9.56t-9.93-3.5c-4.24,0-7.53,1.16-9.9,3.47s-3.56,5.52-3.56,9.59,1.18,7.22,3.54,9.55,5.66,3.48,9.92,3.48,7.56-1.16,9.92-3.48,3.53-5.51,3.53-9.55m-9.69,6a3.79,3.79,0,0,1-1.66,1.21,5.77,5.77,0,0,1-2,.37,5.94,5.94,0,0,1-2.22-.4,4.11,4.11,0,0,1-1.67-1.24,6.34,6.34,0,0,1-1.1-2.38,14.31,14.31,0,0,1-.37-3.49,14,14,0,0,1,.43-3.74,6.26,6.26,0,0,1,1.15-2.33,4.15,4.15,0,0,1,1.69-1.23,6,6,0,0,1,2-.3,6.17,6.17,0,0,1,2.12.36,3.78,3.78,0,0,1,1.68,1.28,6.22,6.22,0,0,1,1.1,2.34,14.25,14.25,0,0,1,.39,3.62,14.05,14.05,0,0,1-.38,3.67,6.43,6.43,0,0,1-1.15,2.26m39.8-18.26h-7.9v17.41a9.16,9.16,0,0,1-2.36,1.09,7.61,7.61,0,0,1-2.23.38,5.81,5.81,0,0,1-2.34-.38,2.4,2.4,0,0,1-1.26-1.19,5.3,5.3,0,0,1-.57-2c-.07-.82-.12-1.85-.12-3.09V271.86h-7.89v16q0,4.56,2.2,6.9a8.13,8.13,0,0,0,6.26,2.35,10.09,10.09,0,0,0,4.32-.86,23.24,23.24,0,0,0,4-2.53v2.71h7.9Zm25.23,0c-.25,0-.56-.06-.91-.07l-.93,0a10.08,10.08,0,0,0-3.55.74,16.38,16.38,0,0,0-4.51,2.95v-3.6H491.5v24.56h7.89V280a16.27,16.27,0,0,1,2.78-.74,18.44,18.44,0,0,1,3-.21c.49,0,1.11,0,1.86.08a7,7,0,0,1,1.61.26h.69Z" transform="translate(-10 -22.81)"/><path id="FundFonds" class="cls-2" d="M443.24,233H432.71v5.87h9v2.46h-9v10h-2.77V230.55h13.3Zm15.56,10.56a8.78,8.78,0,0,0-2-6,7.33,7.33,0,0,0-10.51,0,10.3,10.3,0,0,0,0,12.06,7.35,7.35,0,0,0,10.51,0,8.71,8.71,0,0,0,2-6m-2.71,0a7,7,0,0,1-1.2,4.46,4.35,4.35,0,0,1-6.6,0,9.06,9.06,0,0,1,0-9,4.44,4.44,0,0,1,6.62,0,7,7,0,0,1,1.19,4.51m19.84-2.34a6.47,6.47,0,0,0-1.33-4.39,4.86,4.86,0,0,0-3.86-1.53,6.63,6.63,0,0,0-2.7.58,10.7,10.7,0,0,0-2.54,1.59v-1.73h-2.63v15.62h2.63V239.7a11.88,11.88,0,0,1,2.25-1.35,5.59,5.59,0,0,1,2.25-.54,4.16,4.16,0,0,1,1.71.3,2.1,2.1,0,0,1,1,.87,3.65,3.65,0,0,1,.45,1.48,14.13,14.13,0,0,1,.14,2v8.89h2.62Zm17.73-11.62H491v6.77a10.19,10.19,0,0,0-2-.81,8.41,8.41,0,0,0-2.18-.26,6.35,6.35,0,0,0-2.62.57A6.49,6.49,0,0,0,482,237.5a7.94,7.94,0,0,0-1.53,2.64,10.48,10.48,0,0,0-.56,3.54,9.63,9.63,0,0,0,1.64,6A5.3,5.3,0,0,0,486,251.8a6.73,6.73,0,0,0,2.66-.54,9.65,9.65,0,0,0,2.37-1.53v1.64h2.62ZM491,247.52a10.22,10.22,0,0,1-2.15,1.29,5.62,5.62,0,0,1-2.26.49,3.39,3.39,0,0,1-3.05-1.44,7.74,7.74,0,0,1-.95-4.24,6.76,6.76,0,0,1,1.24-4.36,4.12,4.12,0,0,1,3.43-1.54,8.77,8.77,0,0,1,1.84.18,11.29,11.29,0,0,1,1.9.65v9m19-.65a3.78,3.78,0,0,0-1-2.75,5.47,5.47,0,0,0-2.82-1.43c-.4-.1-.9-.2-1.5-.31l-1.63-.34a4.71,4.71,0,0,1-1.91-.8,1.79,1.79,0,0,1-.59-1.45,1.77,1.77,0,0,1,1-1.65,5,5,0,0,1,2.43-.55,8.25,8.25,0,0,1,2.83.52,9.44,9.44,0,0,1,2.44,1.24h.14v-2.81a11,11,0,0,0-2.39-.83,11.94,11.94,0,0,0-2.82-.34,8.82,8.82,0,0,0-2.71.39,5.73,5.73,0,0,0-2,1,4.36,4.36,0,0,0-1.21,1.52,4.48,4.48,0,0,0-.4,1.82,3.94,3.94,0,0,0,.88,2.59,5.3,5.3,0,0,0,2.9,1.6c.49.14,1.05.26,1.65.37l1.46.29a4.91,4.91,0,0,1,2,.81,1.81,1.81,0,0,1,.54,1.4,1.87,1.87,0,0,1-1,1.76,5.5,5.5,0,0,1-2.71.56,8.73,8.73,0,0,1-2.92-.55,10.77,10.77,0,0,1-2.78-1.49h-.13v3a13,13,0,0,0,2.43.9,11.33,11.33,0,0,0,3.18.42,7.74,7.74,0,0,0,4.83-1.37,4.27,4.27,0,0,0,1.77-3.51M23.3,231.74H10v20.82h2.77v-10h9v-2.46h-9V234.2H23.3Zm15.9,5.2H36.57v11.67A10.36,10.36,0,0,1,34.31,250a5.6,5.6,0,0,1-2.23.53,4.33,4.33,0,0,1-1.74-.28,2.23,2.23,0,0,1-1-.9,3.55,3.55,0,0,1-.48-1.44,16.93,16.93,0,0,1-.11-2v-8.9H26.14v10.14a6.34,6.34,0,0,0,1.37,4.42,4.92,4.92,0,0,0,3.83,1.5,6.41,6.41,0,0,0,2.69-.56,12.5,12.5,0,0,0,2.54-1.61v1.73H39.2Zm18.23,5.49A6.44,6.44,0,0,0,56.1,238a4.82,4.82,0,0,0-3.85-1.53,6.71,6.71,0,0,0-2.7.57,11.14,11.14,0,0,0-2.55,1.6v-1.74H44.38v15.62H47V240.9a11.38,11.38,0,0,1,2.25-1.35A5.41,5.41,0,0,1,51.5,239a4.16,4.16,0,0,1,1.71.28,2.11,2.11,0,0,1,1,.87,3.74,3.74,0,0,1,.46,1.48,16,16,0,0,1,.13,2v8.89h2.62Zm17.74-11.62H72.54v6.76a10,10,0,0,0-2-.8,8.41,8.41,0,0,0-2.18-.26,6.47,6.47,0,0,0-4.84,2.19A8.11,8.11,0,0,0,62,241.34a10.41,10.41,0,0,0-.57,3.53,9.72,9.72,0,0,0,1.64,6A5.3,5.3,0,0,0,67.51,253a6.57,6.57,0,0,0,2.67-.54,9.9,9.9,0,0,0,2.36-1.53v1.63h2.63Zm-2.63,17.91A9.67,9.67,0,0,1,70.4,250a5.53,5.53,0,0,1-2.27.51,3.39,3.39,0,0,1-3-1.45,7.79,7.79,0,0,1-1-4.23,6.74,6.74,0,0,1,1.24-4.36,4.12,4.12,0,0,1,3.44-1.54,8.8,8.8,0,0,1,1.83.18,11.29,11.29,0,0,1,1.9.65v9" transform="translate(-10 -22.81)"/><path id="Logogram" class="cls-3" d="M167.82,49.51c-4.85,1.6-7.42.13-11.33.72,1.07-6.36,8.11-.77,11.33-.72m192.66,5.84c-1.94-6.61-5.07-1.68-10.13-2.19,2.18,3.76,6.53,2.15,10.13,2.19M337.23,59c-.91,1-1.88,3.55-.6,5.11,3,.25,4.08-1.81,4.77-4.38-2.21-.28-1.57,3-4.17,2.19.16-.45,1.47-2.81,0-2.92m5.95,4.38c-2.68,1.29-5.64,2.92-6.55,4.38,2.35,1.64,5.61-1.87,6.55-4.38M183.93,64.83c.37,0,.71.11.59.73,0,1-1,.67-1.19,1.46.82.23,1.15,1,2.39.73.61-2-.93-5.07-1.79-2.92m85.3,1.46c-.55,1.28-1.11,2.53-3,2.19-.27,2.28,1.28,2.33,3,2.18.46-.5,1.32-4.06,0-4.37m-25.65,5.1c-.44-5.3-7.25-2.45-7.16,1.47,1,1.22,1.56,3,3.58,2.91.24-1.75-1.09-1.58-.6-3.65.84-1.1,2.9-2.3,4.18-.73m28.63-1.46c-3.31,6.73,5.74,10,6,2.93-.85-2.37-2.89-3.27-6-2.93M274,73.58a3.34,3.34,0,0,1,3-.72c1,3.46-3.44,4-3,.72m54.28,2.19c-2.19.48-3,2.69-4.17,4.38,2.75.21,3.21-2.39,4.17-4.38M339,78c0,3.2-2,3.91-2.38,6.57,2.26.07,3.94-4.37,2.38-6.57m-13.12,2.92c.45,2.74-2.28,1.59-2.38,3.64,2.46,1.33,5-3.47,2.38-3.64m-149.71,7.3c2.19.15,4.27-4.76,1.78-5.84-.09,3-.61,3.13-1.78,5.84m-26.84,17.5c2.94-3.6,11.2-6.74,9.54-13.86-2.1-9-16.87-.84-17.3,7.3,4.07-2.46,11.92-12.55,15.51-4.37-1.8,4.61-6.77,5.33-7.75,10.93M367.05,96.2c-3.5,2.08-9.18-.57-9.55,5.11-.31,4.84,5.41,5.45,7.16,10.22.8-6.1-3.43-6-4.18-10.22,2.39-.48,5.19-.46,7.16-1.46a5.69,5.69,0,0,0-.59-3.65M198.84,98.39c0,3-.26,5.08-2.38,3.65.07,1.85.87,2.83,2.38,2.92.58-1,1.15-8.14,0-6.57m-53.08,7.29c-2.42.49-4.17,4.75-7.16,2.19.91,5.87,6.83,1.33,7.16-2.19m6,8c-.56,2.51-5,4.11-3.58,6.57.55-2.51,5-4.11,3.58-6.57m8.35,0c-3.35.42-3.9-.27-6,1.46,2.27,1,4.08.86,5.36,1.46.08,3.81.89,6.7,3.59,7.29,2.94-.53,4.32-3,7.15-3.64-3.49-3-4.82,2.12-7.75,2.19-1.29-2.32-1-6.63-2.39-8.76m-22.67,1.46c-2.6,2.16-3.84,6-8.34,5.84,1.72,5.22,9.58-2.8,8.34-5.84m18.5,2.92c-.31,2.09-3.79,4.07-2.39,5.83.36-2.25,5.23-4.19,2.39-5.83m205.77.73c.77,3.19,3,4.58,4.77,6.56-1.13-2.74-2.1-5.68-4.77-6.56m-2.37,4.38c-2.64-8.24-6,1.68-8.95,3.65-2.52-.1-2.86-2.83-5.37-2.92s-4.65,6.54-1.2,7.29c-.12-2.09.15-3.71,1.2-4.37,2.8,0,3.64,2.35,6.55,2.19,3-1.7,3.65-9.81,7.77-5.84m-199.23,0c-.81,2.19-4.27,5-3,7.29.27-2.86,4.53-4.64,3-7.29m191.46,18.23c-1.63-1.87-3.13-7-5.36-5.83.9,3,2,5.8,5.36,5.83m31-3.65c1.54,4.2,3.51,7.88,6.56,10.22-1.82-3.85-3-8.47-6.56-10.22m-35.79,2.93c.85,5.28,3.32,8.59,7.76,9.48a60,60,0,0,0-7.76-9.48m8.36,2.91c1.09,1.1,1.48,3,3,3.65-.08-1.9-1.77-5.57-3-3.65m-196.84,8q-2.9.84-3.58,4.38c2.61.27,2.87-2.33,3.58-4.38m202.8,6.56c.22,2.62.85,3.63-1.2,2.19.12,2.06,1.05,3.11,3,2.92.28-2.78-.25-4.55-1.79-5.11M210.17,232.63c-1.1,5.47-6.11,6.14-10.14,8,3.15,10.13,13.61.54,17.31-2.19,1.1,2.54,3.95,2.94,6,4.38,2.17-5.52,13.39,2.89,11.33-10.22-1.77-2.49-8.08-3.48-8.95.73.15,2.49,1.28,3.8,3.58,3.65,2.35.44-.15-5,2.39-4.38a4.72,4.72,0,0,0,.6,2.92c-11.51,8.27-8.37-19.11-22.08-15.32-5.07-16.85-27.47-17.63-40.55-9.48-1.51-4-4.56-6.11-6.57-9.49-2.4-.95-4.59,2.09-5.36.73.54-15.38,10.95-18.7,14.91-29.91,2-.24,7.66-.63,9.54,1.45.27,3.41-1.18,4.69,0,7.3,6.87,2.34,15.79-2.44,22.67,0,1.91,1.64,1.51,5.42,1.79,7.3,1.71,1.31,4,1.92,5.37,3.64-4.88,30.77,21.94,29.08,41.75,32.11,1.31,1.31.47,5.27,3,5.1,4.86-3.23,8-6,14.31-6.57,3.87-.36,8,.54,11.93,0,13.51-1.84,17.7-11.64,17.9-29.91,2-1.73,2.77-.44,4.77-2.18.21-3.15.35-6.38,2.38-7.3a46.16,46.16,0,0,1,20.28,3.65c2.94-5.66,5.21-12.12,13.72-10.95.51,14.47,13.05,18.09,11.93,32.1a12.11,12.11,0,0,0-3.57-1.45c-2.85,4.29-6.4,4.51-9.55,7.3-12.77-8-35.09-4.92-40,9.47-8.73-4.5-11.58,8.63-16.7,13.14-.24-3.85-1.61-4.73-3.58-5.11-11.49-2.2-3.48,22,5.36,9.49a19.89,19.89,0,0,0,1.2,6.56c3.22-.68,4.88-3.27,6.56-5.84,4.12.72,6,8.59,12.53,5.84-1.7-4.06.56-7.5,1.78-10.21,4.89,1.77,9.88-2.36,7.75-8.76.27-2-3.24.57-3-1.45-1.07-14.91,18.16-10.54,24.47-6.57,0,2.26-1.88,2.08-1.2,5.1a3.8,3.8,0,0,1,6,2.19c.59,2.92-1.78,2.2-1.19,5.11,1.39.24,2.57.75,3,2.19-1.21,1.94-3.76,2.22-3.58,5.84.27,2.36,3.19,1.45,4.18,2.91-1.88,1.89.6,4.57.6,6.57,2,1.2,5.13.85,6.55-.73-.13-1.38.68-1.61.61-2.92.73-3.32-2.1-2.3-2.39-4.37,12.08-4.76,44.32,6.41,46.52-13.14.79-7-5.55-13.17-7.75-19-6.1-16.05-12.34-33.32-21.47-44.51.14-3.61-2.7-7.37-1.8-9.49,3.95,3.23,7.21,10,13.73,5.84,11.21,20.81,25.63,46.91,50.1,44.51C408.75,177.74,395.33,122.61,373,96.21c-7.83-9.27-23.19-8.2-21.48,8.74-4.43-5.79-10.67-13.14-8.35-24.8,1-1.19,2.5.65,4.77,0,1.16-2.62-.22-2.67-.59-5.11,2.87-7.44,11.33-2.42,16.7-4.38,4-1.45,5.12-6.59,9.54-7.29,1.33-2.39,3.51-5.55,2.39-8.75-1.59.15-.47,7-3,5.1,0-1.94.22-4.16-.6-5.1-2.16-1.5-4.53-2.73-6.56-4.38-2.8-.38-5-3.36-8.94-3.65-5.61-.42-12.13,4.22-17.31,2.19-2.41-1,.67-5-1.79-5.11-5.74.68-5.28,9.08-2.37,13.13-2.92,1.3-4.18,4.62-8.95,3.65-.3,3,1.35,3.69,1.78,5.84-3.25,5.75-8,9.6-9.53,17.51-3.05-3.69-8.54-5.07-11.33-1.46-7.65,9.84,3.15,29.55,5.35,38.67.76,3.13.07,6.27.6,8.75,2.1,9.67,10.18,19.35,12.53,25.53-8.71-.39-5.25,12.66-5.37,21.16-3.32,2.86-8.11,2.64-11.93,0-1.66-3.12.7-6.65,0-10.94-3-1.2-5-3.55-7.16-5.84.71-21.13.41-46.18,1.19-64.93-1.84-3.09-7.07-2-11.32-2.19-1.62-3.13-4.82-4.32-5.38-8.75,2.22-5,10.58-7.22,7.76-13.86a37.35,37.35,0,0,0,8.94-4.38c10.54,5.3,11.63-16.28,1.8-15.32.59-7.53-4.49-11.22-10.14-8.76.58-5.09-2.55-5.64-4.18-8-3.2-.52-5.09.58-7.16,1.45-2.65-13.84-14.72-9.52-14.31.74.11,2.84,2.59,4.8,2.38,7.29-.8,10-10.63,7-10.14-1.46,4.06-2.95,6.17-6,6-10.21-.51-11-17.28-12.06-15.51,1.46.48,3.62,3.32,3.54,4.77,7.29-.66,4.54-1.58,8.77-5.37,9.49-2.31-1.31-3.5-4-4.18-7.3,11-10.86-10.28-26.33-11.32-8-4.84-6-12.92-1.45-14.32,5.11-5.07-2.18-9.74,2.1-8.94,9.49-3.43-2.13-6.62,1.28-7.16,3.65C202,64.58,218.2,61.64,222.7,67a9.71,9.71,0,0,0-1.79,7.29c2.89,1.92,6.73,5.39,8.35,6.57,0,4.12-3,7.62-6,10.21-3.77.52-8.67-.79-10.74,0,.34,29.31-.62,42.58-.59,68.58-2.71.69-3.58-.17-5.37.73-2.57,3.36-1,7.33-1.2,13.13-3.23,1-11.75,3.59-13.72-.72.59-6.81,4.38-15.53.6-21.16-1.12-1.06-3.95,0-4.77-1.46,5.66-7.67,12.46-13.94,13.12-27.72,6.52-8.45,17.6-40.85,0-44.51-1.61.73-3.85,4.49-4.77,3.65-1.15-7.84-5.43-11.83-7.75-18.24,2.7-.59,3.43-3.58,3-8-2.31,5.88-10.55-3.22-10.74-5.11-.09-1,7-10.16,0-10.22-1.29.62.22,4.65-1.19,5.11-6.91,1.52-14-3.93-20.88-2.92-5,.74-8.17,6.23-13.12,5.84-1.19,1.23-1.64,3.35-2.39,5.1-1.17-1.23-.22-5.06-2.38-5.1a19,19,0,0,0,.59,6.57c1.62.94,2.13,3.24,4.77,2.91,1.39,11.69,20.18,2.08,22.67,12.41.74,2.36-1.93.55-1.19,2.91,1.66,3.55,5.55.84,6.56.73,4.08,14-5.3,20.46-10.14,27.73-2.42,3.63-4.3,10.79-8.34,8.75.77-5.62,5.67-4.27,7.74-8.75,4.11-8.86-.89-18.76-10.73-17.51-4.53.58-9.3,5.54-12.53,9.48-10.91,13.36-20.48,32.32-28.63,51.81-8.55,20.44-18.1,38.77-28,53.25,26,2.47,37.34-30.22,55.48-44.5,3.87,6.67,7.63-3.09,11.33-3.65-8.31,23.14-25,36-30.42,62.75-7.78,3.63-2.28,15.26,1.19,18.23,10.49,9,31-1.1,40,6.57-2-.23-3.67-.12-4.18,1.46,3,13.58,10.31-2.37,14.32-2.19,0-3.2-1.7-4.24-3-5.84,1.79-1.46.79-6.34,4.78-5.11.29-3.27-.31-5.47-.6-8,5.3-5.63,29-8.83,28,3.65-.28,3.63-1.22,4.33-4.77,5.11-1,7.55,3.84,8.75,7.75,6.56-.15,2.37.71,3.51,2.39,3.65,2.51.12,3.67-5.21,4.77-4.38M152.92,48.78c1.87,3.29-2.21,3.06,1.19,5.84,2.09-1.7,2.58-7.42-1.79-6.57-.07-2.25,4,.57,3.57-3.65,8.07-2.82,17.62,4.62,23.87,1.46,2,2-2.08,2.77-3,3.65,3.45,4.05,6.68,8.37,11.93,10.21-1.48,2.92-4.31-2.9-4.77.73,2.55,3.42,4.43,6.53,3.58,10.94-1.92.65-1.24-1.89-2.39-2.19-1.53.18.82,1.26,0,2.93-3.43-1.65-2.14-9.06-5.36-10.95.09-.85,1.08-.62,1.79-.73,0-2.73-1-4.18-2.39-5.1-1.62.66,1.59,1.35.6,3.64-1.25-.42-1.71-1.81-3.58-1.46-1.77.64,1.38,1.1.59,2.92-1.69.6-1.54-1-3-.73.93,2.51,4.17,2.19,3.58,6.57-1.82,0-2.32-1.54-3.58-2.19-1.44.67,1.35,2.15.6,4.38-1.82,0-2.33-1.54-3.58-2.19-1.52,1.19,1.93,2.44,1.19,5.1-.72.83-1.08,2.09-3,1.46.25-1.39,1.28-1.83,1.19-3.65-3.5-4.81-5.37-11.77-11.33-11.67,2.4-1.21,9.15-1.48,10.74.74,1-5.13-10.53-1.22-13.13-4.38-3.52,4.74-8.19-3-11.93,0,0-2.67,1.7-3.28,2.39-5.11,2.47-1,4.61,2.08,6,0M259.09,37.84c-5.07.53-9.8-12.33-.6-13.14,6.45-.56,6.81,12.48.6,13.14m-22.67-1.46c-1.53-8.13,6-11.18,9.55-6.57,3.45,8.91-6.57,13.35-9.55,6.57m39.36,5.1c-8.93.43-5.06-20.23,4.18-10.95,1.65,5.71-.49,10.78-4.18,10.95m-42.94.73c-8.68,11.28-13-15.62-.59-8,.71,2,.65,5,.59,8m59.65-.73c-1,13.58-16.87-1.94-6-5.83,3-1.09,6.37.31,6,5.83M240,50.24c-5.71-.54-5.59-5.63-4.18-11.67,2.21.21,2.15,3.2,5.37,2.18A10.93,10.93,0,0,1,240,50.24m-16.7-5.11c2.29,14.79-16.62,2.55-7.16-3.65,3.41-2.23,6.57-.17,7.16,3.65m2.38,19.7c-4.48.61-6.77-1.45-9.54-2.92.89-1.27,3.51,1.5,6,.73,3.36-1.53,2.18-6.64,1.2-10.21,2.48.36,3.27,2.8,6,2.92,2.49-1,4.29-4.61,3-8,3.11,5.68,12.3,6.12,11.33-4.38,2.73,4,3.53,8.34,7.75,8,4.87-.36,4.15-7,7.76-10.21-2,13.59,13.43,12.32,13.71,2.19,2.37.76.42,6.79,1.79,8.76,2,4.31,8.42,1.73,9-2.19-.52,7.12,5.57,10.46,9.54,5.84.92,1.39-2.35,3.9-1.19,8,.87,2.92,4.19,2.15,6.56,1.46-.85,3.09-5.13,2-8.35,2.19a6.24,6.24,0,0,1-.59-5.84c-3.08-2.36-2.76,2.63-6,2.19-2.4-.7-1-6.11-3-7.29-2.46,1.19-3.82,5.73-7.76,2.91-.18-1.71-.94-2.73-.6-5.1-3.48-1.7-4.13,3.61-7.15,3.64-3.92.06-3.6-4.31-7.75-5.83-2.07.62-2.07,3.79-3.58,5.1-5.86,2.06-4.76-4.39-9.54-3.65-.94,2-1.1,5-3,5.84-3.4.77-3.49-2.54-6-2.91-1.79.48-.91,4.24-2.39,5.1-2.74,1.18-3.56-.55-6-1.46-2.34.3.59,3.47-1.2,5.11m57.26-19a6.27,6.27,0,0,1-6.57,5.84c-2.91-8.51,6.77-12.78,6.57-5.84m12.53,8c-6.94-5.78,6.79-21.3,7.15-2.93-1.65,2-4.25,5.34-7.15,2.93m27.44,75.87c1,.53,1-3.44,0-2.92.84-.74,3.31,2.73,4.76,3.65-.51,2.12-.89.82-2.38.73.19,1.71.94,2.74.6,5.11-1.37.22-.67-2.11-1.79-2.19-1.26.88,1.16,3.4,2.39,3.64,1.32-.09.25-3.09.59-4.37,2.64,1.43.9,3.72,1.79,7.3-1.22-.22-1.17-2-2.38-2.19-1.16.75,1.56,2.89,2.38,3.64,1.71-.09,1.1-3,1.19-5.1,1.31-.47,1.9,2.06,1.79-.73,1.87,2,4-.69,3.59,3.65-1.84.54-1.15-2-3-1.46.2,3.15,3.48,2.55,3.58,5.84-2.55.19-2.6-2.67-4.18-3.65-1.31.09-.25,3.09-.59,4.38-1.46-.42-1.27-2.83-3.59-2.2-1-.31.06,2.72.6,2.92-1,2.28-1.88-1.49-3-1.45,0,2.13,1.36,2.7,2.38,3.64,2.53-3,10.23-5,9.56,2.92-2.52-.09-3-2.63-4.78-3.65,0,1.72,1,2.15.59,4.38-1.54-.29-1.79-2.18-3.57-2.19-1.14.07.37,2.84,1.19,2.92-3,2.84-3.82-3.08-4.77-5.11-1.88.82-1.58.35-3-.73.45-4.28-.6-5.13-2.39-5.11.1-.85,1.09-.61,1.79-.72.08-1.8.09-3.52-.6-4.38-1.58-.23.56,4.09-1.78,2.91-.32-2-.88-3.78-1.19-5.83-3.55,2.76-.52-5.64-1.8-8.75-.7.12-.5,1.32-.6,2.18-2.44-.82-.14-3.23-.6-5.83,1.4-.82,1.61.15,3-1.46V115.9c-.47,1.2-2,4-1.8,0-1.05.18-1.36,1.26-1.2,2.92,1-6.6-2.69-21.58,1.8-29.19,1.32,3.74,0,10.66,1.79,13.87.26-11.72.33-26.41,8.34-30.65-.52-4.77,1.78-6.09,3.59-8,.69.12.5,1.33.59,2.19,1.48.11,2.9.13,3-1.46-.26-1.08-.77.28-1.8,0,.22-1,1.06-1.15,1.2-2.19-.59-2-1.59,1.06-2.39-.73,2.26-2.84,5.22-4.81,7.16-8-3.18.17-6.32-6.95-2.38-8.76,3.92,13.11,20.16-3.17,25.65,6.57,1.68.6,1.54-1,3-.73,1,3.85,6.83,1.85,6,8-1.32-1.55-6-2.48-7.16,0-2.29-2.07,1.36-5.47,0-6.57-1.62-.52-1.2,1.45-2.39,1.47-.45,2.75.74,3.48.61,5.83-1.14.32-1.5,1.57-3,1.46.11-.59.59-.73.59-1.46-4.51,2.88-13-3.41-14.91,2.92,2.85-2.25,6.24-1,10.14-.73.16,2.88-2.56,2.23-2.4,5.11,3.12,1.36,10.15,1.22,12.53-.73-1,3.46-9.4,2.56-14.31,2.18-.52-2.82,1.45-2.59,1.78-4.37-1.27-1.79-5.09,2.14-3,4.37-2.85,1.45-5.65,5.46-3,9.49-4,.11-1.43-4.6-1.2-7.3-2.19.72-2.13,4.21-5.36,3.65a44.83,44.83,0,0,1,3-6.56c-4.28,3-7.87,2.85-11.92,6.56.37-3.68,4.3-3,4.77-6.56-1.82-2-1.87,2.56-4.18,2.18a3.84,3.84,0,0,0,.6-2.18c-2.65-.56-2.4,2.41-3.58,3.65.52,2.15.9-1.7,2.39-.74-.27,2.63-1.53,3.54-.6,5.84,3.64.81,2.51-4.22,6-3.65-.46,3.35-2.4,4.87-3.59,7.3,4.55.45,4.09-5.22,5.37-8.75,3,.45-1.74,5.47,3,5.1-1,4.11-1.86,8.43-3,12.4-1.1-.11-.36-2.47-1.18-2.91-1,3.13-1.49,7-3,9.49-2-3.5,1.28-6.69,1.2-10.22-3.05-.31-1.05,5.54-4.18,5.1-.47-3.48,2.12-3.23,1.78-6.57,3,.5,3.74-1.75,4.19-4.37-2,0-2,4.62-4.19,2.19-1.34,1-1.13,4-2.38,5.11-3-2.72,1.6-4.81,1.79-8-.18-1.74-1.61.81-1.79,1.46-1.78-.48.58-1.56,0-2.92-5.45,4.35,1.69,12.27-1.79,17.51-1.66.33.47-4-1.2-3.65-1.33,1-.55,5.49.6,5.84-.76,1.25-1.23,2.87-3,2.92.08-1,.1-5.28-.6-2.92-1.2-3,2.78-5.85,3-9.48-7.05,5.61-11.21,29.37-4.76,41.58M333,97.66c4.1-.34,4.23-5.53,6-8.76,2.49,3.52,3.68,8.63,4.17,14.6,1.06-.18,1.36-1.26,1.2-2.92,1.69.74,3.25,4.24,1.79,6.56,1.06.1,1.26-.89,2.38-.73,1.76,2.88,1.4,4.17,1.8,8-2.65.07-.11-6.19-3-5.84.41,1.75-.56,7,1.19,9.49-3.85,2.26-1.86-8.9-4.17-11-2.1,3.58.09,5.11,0,9.49a5,5,0,0,1-3.58-5.11c.78.88.94.28,1.79,0-1.18-4.79-.29-7.62-1.19-12.4-1.33.31-.25,3.59-.6,5.11-2.34.42-1.52-3-3-3.65,2-.55,3.52-5.39,1.79-8-1.33.32-.23,3.6-.59,5.11-1.22,1.47-1.17-.32-2.38-.73-.95,1.53-.41,4.84-1.19,6.57-2.31-.1-2.45-2.85-2.4-5.84M225.68,51c-.43-2.23,1-2.14.6-4.37h4.18a10.1,10.1,0,0,1,0,6.56c-2.58.48-3.35-1.25-4.78-2.19m-11.33,8c-10.6,7.66-9.47-16.6,0-7.29V59m71.57-4.37c-.87-5.45,3.81-4.11,6.57-5.11,0,1.15-.3,2.78.59,2.92-1.32,1.77-2.69,3.5-5.36,3.65a4.34,4.34,0,0,0-1.8-1.46m23.87,6.56c-.74,2.2-3.74,3.19-6.57,2.19-8-12.23,10.63-14.27,6.57-2.19M216.74,59c.62-1.67.37-4.4,1.18-5.84,3-.42,6.08,2.5,4.18,7.3-2.5.39-3.33-1.27-5.36-1.46m40-1.46c.31-1.08.88-1.83,1.19-2.91.88.63,1.9,1.09,1.79,2.91h-3m37,5.84c-.38-5.09,2.23-6.53,6.56-5.84.05,1.16-.29,2.79.6,2.92-1.24,2.38-3.71,3.24-7.16,2.92m-134.2-1.46c-1.62-1.43-3.09-3-6-2.92,2-2.91,8.58,3.59,10.74,2.92-3.59,3.55-11,0-14.92-.73,2.67-1.77,5.94,2,10.15.73m109.75,1.46c-12.94-.49-29.92-1.6-40,6.57,4.61-.94,11.53-5.35,19.09-5.11.15,2.12-1.13,2.51-1.8,3.65,1,3.31,4.09.08,3-3.65,9.39-1.55,25.49.6,34.6,5.83-.67,1.37-.71,3.52-3,2.92,2.7,2.24,2,6.09,2.39,10.22-3.05-.09-.81-2.42-1.19-5.11-2.16.53-3,2.64-6,2.19.88-2.1,3.76-1.74,4.19-4.38V72.13c-2.11.09-1,4.14-2.39,5.1-3.73,1-7.86.49-7.75-5.1-2.67.62-3.87,3.05-4.77,5.83-1.39-2.45-.21-8-.6-11.67-3.39-1.69-9.34-.25-13.72-.73-1.8,2.59-.37,4.72-.6,8.75-1.12-.07-.41-2.4-1.79-2.18a35.19,35.19,0,0,0-2.39,3.64c1.66,2.18,3.71-2.69,4.78.73-1.13,3-6.56.74-9,2.19,1.59-1.71,3.45-3.09,4.17-5.84,0-2.72-1-4.18-2.37-5.1,5.51,7.44-11.55,14-8.36,2.19-3.59-.55-3.93,4.21-7.16,3.64.56,2,4.32,2.38,2.39,5.11-.64-2.62-2.76-3.43-4.17-5.11-.72.83-1.09,2.09-3,1.46C221,65.63,232.72,62.26,240,60.45c17.64-4.39,40.52.36,51.89,9.49.08,1.26,1.94,6-.59,5.83,0-11.37-24-16.56-40-15.32-8.13.63-17.54,3-21.47,7.3,9.83-5.58,26.09-7.37,39.37-4.38m95.43-.73c.68-1.16,3.37-3.59,4.77-1.46,0,2.42-4.36,1.76-4.77,1.46M179.16,86.72c-1.85,3.11,1.74,8.78-2.39,9.49A6.43,6.43,0,0,1,178,91.09c-1.43-.3-1.29,1.34-3,.73,1.69,2.05.92,5.36-1.8,5.84a4.79,4.79,0,0,0,.6-2.92c-1.68.91-2,3-1.19,5.11,2.77-1.6,4-.51,6.56-2.19-.43,2,1.18,1.47,1.19,2.92.28,2.29-1.6,1.93-1.79,3.65-1.32-.09-.25-3.1-.6-4.38-2.2,1-1.84,5-4.77,5.1,0-1.71,1-2.14.6-4.37-2.08.86-1.52,5-4.17,5.1-.5-2.05.83-1.89.59-3.64-2.21.17-1.67,2.58-1.19,4.37-1.57.76-2.48,2.32-3.58,3.65,1.93,1.2,5.21-5.54,7.75-3.65.44,3.22-1.93,3-2.38,5.11-.81-.22-.5-1.83-.6-2.92-.47,3.09-2.78,6.06-4.17,8-3.11-.33-1.63-6.28-4.18-7.3,3.84-12,14.47-15.64,14.91-28.45.2-5.55-3.06-8.89-1.19-13.86,1.61.81,4.11,1.42,3.58-2.19,1.41.71,2.93,1.28,2.39,4.37a2.57,2.57,0,0,0-1.79-.72c.18,2.93,2.8,2.89,2.38,6.56-1.24-.42-1.92-1.53-3-2.19.2,2.34,1,6.76-1.79,5.11.57,2.25,1.5,3.57,3.57,2.19.1,2,.12,3.76-1.18,2.19,1.36,1.7,4.78,8.9,0,9.48V87.45c.11-.63-.24-.69-.6-.73M356.31,66.29c2.08-1.11,4.88-1.32,7.75-1.46-1.34,1.8-6.5,1.88-7.75,1.46m-66.8,9.48c-2.29-5.47-6.73-8.31-12.53-9.48,4.69-.39,11.77,2.61,12.53,9.48m-26.25-9.48c-1.32,3-6.92.77-10.15,1.46-1.33.54-.22,4.09-.58,5.83,1.53-.35,11.92,4.54,10.14-5.1,1.14-1.43.61,6.17,0,7.29H251.93c-1.17-2-.36-6.37-.6-9.48h11.93m-76.35,6.56c1.68.61,1.55-1,3-.72-.36,1.5,1,5.07-1.2,4.37.21,1,1.05,1.15,1.2,2.19,1-.18,1.35-1.25,1.19-2.92,3.59,2.42,2.23,10.88,3.58,16-1.48.46-2.22.33-1.79,4.39-4.1-3.76,2.82-9.94-.6-13.14-1.33.31-.24,3.6-.6,5.11-2.74-.29.36-7.74-2.38-8-1.35-.44,1.71,5-1.19,4.37-.33-5.06.39-7.59-1.2-11.67M186.32,78c-1.64-.67-2.5-2.3-3-4.38,1.92.33,3.47,1.11,3,4.38m44.14,5.11c.91-3.54,5-5,2.38-8.76,5.71,1.62-2.18,5.23,1.19,8-1.4,0-1.75,1.26-3.57.73m-47.73-2.92c-1.12-1.05-2.63-1.63-2.38-4.38a2.88,2.88,0,0,0,2.38.73v3.65M268,78c.21-1,1.05-1.15,1.2-2.19,1.21.22,1.16,2,2.39,2.19-.26,1.62-3.17.57-3.59,0m-32.21,2.92a4.79,4.79,0,0,0,.6-2.92c.51-.13.56.29.6.73,7.39-.64,2.61,1.63-1.2,2.19m-53.68.73c1.57.22,2-1,1.79-2.92,2.69-.22,2.57,3,3,3.65-.89,2.41-1.45-1.52-3-.73a16.09,16.09,0,0,1,.59,5.84c-2.29-.1-2.44-2.85-2.38-5.84m44.14,9.48c10.61-17.28,52.75-17.07,62,1.46-11.37-16.67-49.19-16.14-62-1.46M203,80.15c8.65,6.85,2.86,23.7-1.18,32.83-2.82-7.17,7.56-26.15-3.59-29.18.33-2.78,2.55-3.22,4.77-3.65m27.45,10.94c11.6-12.22,42.32-12.55,53.68,1.46-11.28-8-30.33-13.43-46.53-5.83-2.68,1.25-4.4,3.92-7.15,4.37m81.71,13.14c2.32-.74.09-2.52.59-5.11,2.1,3.65,1.16,11.39,0,15.32-6.78-7.42-9.25-42.19,5.37-29.19-.86,2.17-2.32-1-4.17,0-4.22,2.17-3.43,13.94-1.79,19M187.51,92.55c-3.2-.49-2-4-1.79-7.3h1.79v7.3m-1.79,51.07c3.06-.15,4.64-2.1,4.78-5.84-1.38,1-1.93,3-3,4.38-1.77-1.06.79-2.84,0-5.1,2.34,1.56,3.21-1.51,4.17-3.65-.4-1.59-2,1.38-2.38,2.19-1.79-2.71,2.58-4.11,2.38-7.29-1.22-2.16-1.15,3.39-3.57,2.18.44-3.35,2.45-4.78,4.77-5.83,1.09-5.8,2.89-14.35,1.19-21.16,2.39-4.13,2.25-11.36,2.39-18.25,6,2.1,4.69,18,2.38,24.08-.69-.11-.5-1.33-.6-2.19-2.1.35-2.18,3.17-3,5.11.87,1.94,1.33-2.68,3.58-1.46v5.11c-1.12-.08-.41-2.41-1.78-2.19-.59,4.05,2.62,5.53,0,8-.86-.17-.21-2.18-1.2-2.19-1.79.48.57,1.56,0,2.92.18,1,1.49.6,2.38.72.6,2.63-3,7.79-3,2.92-1,.18-1.35,1.26-1.19,2.93.52,2.11.89.81,2.39.72.07,1.31-.73,1.54-.6,2.92-1.21,1.46-1.17-.32-2.38-.73.38,9.8-8,13.61-12.54,19.7.54-4.33,3.14-8.56,4.78-13.13,1.47.7-.82,2.8,0,5.1m-34.59-32.83c-3.48-.24-5.44,7.37-10.74,7.3-.08-5,4.54-4.18,5.36-8-1.91-.85-4.63,3.55-7.75,3.65,1.87,1.47-.55,6,3.58,5.84-1.55,3.71-5.1,8.82-9,7.29-2.54,2.48-3.93,6.38-6,9.49,3,.77,3.5-7.87,8.35-7.29-3.22,7.51-8,16.93-15.51,16.77.73-9,5.57-10.67,7.75-19-4.39,4.35-7.11,10.75-11.33,15.32,3.22-10.65,11.51-29,20.28-41.58,3.18-4.56,10-13.49,14.92-14.59,4.53-1,10.11,1.7,10.73,6.56,1.47,11.56-14,10.84-6.55,19.7,2.3.39,2.91-1.3,5.36-.73,1.36,1.49,1.21,4.83,2.38,6.57,14.52-4.51,7.11,19.58,3.58,28.45,2.35.43,4.25-6,5.37-9.48.42,1.82-1.61,10.23,3,7.3.93,1.66-1.5,5.43-3.58,5.83-.17-1.18.56-1.26.59-2.19-2.29.12-.58,5.13-3.58,4.38,0-4.14,3.09-4.49,3-8.76-4.43,2.54-3.65,9.51-6,13.14-1.3.12-.27-2.59-.6-3.65-2.11,1.07-2.51,4.22-4.17,5.83-2.08-1.48,1.73-3.81,0-5.1-6.25,7-11.74,9-17.3,16,5.21-1.9,8.95-5.6,12.52-9.49,1.64,1.93,3.22.41,5.37-.73,1.87,4-4.48,4.23-5.37,7.3-2.29-.64.11-2.93,0-5.11-1.84-.07-1.77,2.21-1.78,4.38-3.07-2.45-3.23,4.08-3,8-2.69,3-4.91,6.64-8.36,8.75.42-3.87,1.89-6.46,3-9.49-8.41,7.95-11.54,22.37-21.46,28.46,6.38-12.38,11.72-26,20.87-35,1.31-11.53,8.32-16.09,13.12-23.35,1.13.09.42,2.41,1.79,2.19,3.7-1.56,5.71-5.17,7.16-9.48-3.83.42-3.46,6-6.56,7.29-1.73-2.63.79-6.31,1.79-8,3,.29-.54,2.5-.6,3.64,3.56-3.25,8.68-8.26,7.76-14.58-1.47,3.07-2.36,6.84-4.78,8.75-1.78-1.52,1.5-3,1.2-5.1-3.15-1.22-3.22,7.1-7.16,7.29-1-3.61,4.73-4.76,4.77-9.49-4.32,3.24-6.09,9.57-11.93,11-2.23-8.41,6.54-9.45,7.16-16.78-4,1.53-5.39,9.82-10.74,7.29,0-6,5.89-4.95,6.56-10.21-2.55.15-6.84,9.41-11.33,5.11-.42,2.7.95,3.22,3,2.91-2.54,3-4.33,6.87-9.55,6.57-.56-4.72,4.21-6.66,6-9.48,2.36-3.8,5.33-7.64,8.36-11.68m87.08-19.7c11.59-5.74,27.3-6.12,37.57,1.46-8.63-1.46-27.54.14-37.57-1.46M189.3,92.55c-1.26-1.67.26-2.58-.6-5.1,2.14-.43,1.82,2.15,1.8,4.37-.7-.11-1.07.16-1.2.73m-8.36,5.84c-3.3-3.53,3-4.77,2.39-9.49,1.56,1.37,4.06,7.77.6,8.76V93.28c-1.91.59-1.35,4.19-3,5.11m132.42-1.46c-1.15-1.46.26-6,1.2-7.3,1,1.25-1.35,4.64-1.2,7.3m-97.82-4.38c24.85.89,54,1.52,84.1,2.19-2.23,29.58.55,73-1.78,105.06-.36,4.78-1.09,10.11-3,13.14-7.85,12.55-31.34-1.1-38.17,13.86-7.87-15.6-35.46-2.34-41.75-19-4.37-11.54-1-43.63-.6-56.9.75-22.52-.88-43.4,1.19-58.37m130.63,59.1c-2.71-1.45-2.64-7.19-3.58-8.76.52-2.15.88,1.7,2.39.73-2.5-5.05-7.49-18.28-.6-21.88,2.22.92,3,3.6,6.56,2.92,1.41-1.67,1.94-4.44,1.78-8,2.91-1.88,6.27,2.82,8.95-.73,1.53-8.43-4.78-7.28-7.75-10.22-.09-12.51,8.46-15.81,15.51-9.47,11.29,10.13,20,37.69,26.84,51.06-3.37-.74-3.55-5.38-6-7.29-.86,4.22,4,7.72,3,14.59-6.52-1.51-7.61-9.66-11.93-13.86-.71,5.79,8.33,9.66,6,17.5-6.75-3.17-9.12-11.7-13.73-17.5.17,6.61,7.37,10.92,7.16,20.42-6.52-3-10.27-9.32-12.53-17.51,4.33.06,3.69,6.2,6.57,8-1.39-4.86-3.41-9-4.18-14.59,4.57,2.19,7.17,6.79,10.14,10.94-1.77-4.85-3-7.16-3-13.13,1.93,1,5.16,2.44,6.57,0,.46-6.49,1.92-13.13-3-17.51-1.18,2.93,3.17,5.34,2.39,10.21-2.69.62-3-1.71-4.77-2.19.94,3,3,4.6,3.57,8-4.08,2.79-6.55-2.68-9.54-3.65-.51,2.12,4.07,4.25,3.57,8.76-4.89-.6-5.77-4.74-9.53-5.11.13,4,2.89,4.72,3,8.75-3.27-.61-4.43-3.81-6.56-5.83,1.54-2.07,2.58,2.64,4.17,2.91-.89-2.54-2.49-4.24-1.78-8.75,4,0,5.95,2.45,7.75,5.11-1.41-3.67-2-4.82-2.38-8.76,3-2.68,5.33,1.74,6.56,3.65-.86-3.23.12-7.19,0-14.59-1.76-3.69-4.06-6.72-5.37-11-.87,2.8-1,5.32-4.18,3.65,1.84,2.14,3.07,5,4.78,7.3,1.67-.93-2.87-4.18-1.19-5.11,3,.66,3.84,4.06,4.17,8-4,.33-5-3.16-7.76-4.38.78,4.16,3.17,6.34,5.37,8.75a2,2,0,0,0-1.19-2.18c.66-1.23,4.39-.07,3.58,2.91-3.13,2-7.19-1.33-8.94-5.1-1.43,3.47,3.73,5.14,3,10.22-3,1.28-7-2-8.94-4.38-.73,2.37,3.77,4.61,3.58,8.75-4.72,2.41-5.67-4.91-9-6.57-.42,5,6.67,6.85,5.37,15.32-6.37.25-6-7.78-9.55-10.94.16,9.06,10.11,12.44,11.34,22.62-5.26-1.6-6.51-8.08-10.15-11.68-.75,5.32,5.85,7.93,5.38,15.32,1-.17,1.36-1.25,1.2-2.91,5.08.9,3.62,7.53,5.95,13.13,3.69,8.82,11.42,16.26,15.51,25.53,1.75,4,2.33,8.31,4.18,12.4-3.5-2.76-5.71-7.12-8.36-10.93.54-2,1.34,1.66,2.4,1.45-1.35-8.85-11.24-13.46-14.92-21.88-.79,5.35,5.6,8.23,4.77,16-5.09-1.3-5.87-7.91-8.94-11.67,4.57-.91,1.65-6.58,3.57-10.22-.06-1.87-1.08-2.56-1.79-3.65-1.61.67.84,2.28,0,4.38-2.79.51-2.35-2.95-4.17-3.65,1.56-2.52,1.3-6.72-1.19-8,.18,4.43-.21,8.21,1.19,14.6-6.2-3.4-1.1-8.21-4.17-16.06-.05-3.26,1.75,1,3,.74-1.67-2.22-2.65-5.35-4.78-5.11-1.29.72.09,4.21.61,5.11-1.22,3.61-2.15-1.7-3.59-2.19-1.53,1.31,2.24,4.55,0,6.56-4.08-1.37,1.83-11.48-1.79-14.59-2.59.08.81,4.59-.59,5.11m8.34,19.69c2.49-.37,1.64,3.35,3,4.38-1.33,1.82-3.19-1.9-3-4.38m-26.84-64.93c-1.45-5.14,2.81-8.41,3.59-13.13,1,4.29,1.83,11.58.59,16-4-1.23,1.34-6.78-1.19-10.21-1.43,1.88-.24,7-3,7.29m-141.35-5.1c-1.5-1.83.68-2.87.59-5.1,2,.2,1.48,5.5-.59,5.1m7.75-.73c-2.4-1.09.53-3-.59-3.65,1.68-2.49,1.15,2.65.59,3.65M182.73,105c-1.17-1.52-.45-4.84,0-6.56,1.19,0,.77,2,2.39,1.46,0,2.69-.27,5-2.39,5.1m140.18.73c-1.56-1.72,1-4.6.6-7.29,2.46,1.63,3,7.32,1.18,10.21-1.28.28-1-5-1.78-2.92m-132.41,0c-2.52-.67-1.48-4.06-1.2-6.56,2.94,1.47.91,2.74,1.2,6.56m143.14.73c1.55,1,2.84,2.36,2.39,5.84-3.29.17-2.73-3.24-2.39-5.84m3.59,2.19c-1.59-.25-2-1.91-2.39-3.65,1.3.14,1.89-.59,1.79-2.18,2.33.69.5,3.67.6,5.83m-151.51-5.1c3.52-.1,4.81,7.27,1.19,8v-5.11c-2.22.68-1.51,5-3.58,5.84-2.49-4,2.08-5.71,2.39-8.75M175,110.79a10.63,10.63,0,0,1,1.19-6.56.9.9,0,0,1,1.19.72c1.32,2.16-.18,5.74-2.38,5.84m4.77-1.46c-2.6-1.11-.25-5.21,1.79-5.1.32,2.82-1.52,3-1.79,5.1m10.74,1.46c-.47-2.75.72-3.49.59-5.84,1,1,2.34,6.22-.59,5.84m150.3-1.46a3.18,3.18,0,0,1-1.79-3.65h1.79v3.65m-18.49,15.33c-.56-5.45-1.13-13,0-18.25,1.21.46.16,3.69,2.38,2.92,1.58.22,1.54-1.52,1.8-2.92,2.3,1.73,7,3.86,4.77,8.76-2.55-.29-1.9-4.5-3.59-5.84-1.76,1.88.84,4.57-.59,6.57-2,.75-.93-2.27-1.19-3.65-1.52.08-1.18,2.45-1.2,4.38-2.12,1.13-.35-2.48-1.78-2.19-1.49.94.17,4.09,1.19,4.38a28.53,28.53,0,0,0,5.37-3.65c.92,1.06.52,3.74.59,5.84-1.51-.09-2.31-1.06-2.39-2.92-1.7.1-1.09,3-1.18,5.1-1.39.23-.67-2.1-1.8-2.18-1.39,1.51,2,3.4,1.2,6.56-1.62-1.65-1.72-3-3.58-2.91m37.58-10.22c-2.83-.92-5.62-1.88-6.56-5.11,1.75-.71,8.51,1.13,6.56,5.11M178,110.79c1.42.42,2.78,1.12,3-1.46,1.19,1.23,1,4.19,2.39,5.11-.85,1.88-1.39,4.13-3.57,4.38a16.34,16.34,0,0,1,.59-5.84c-.61-1.4-2.36,1.92-3,2.92-1.64-1.13-.06-4.38.59-5.11m161,5.11c-2.7.68-2-5.25-1.2-6.57,1.77,1,2,4.33,1.2,6.57m-170,0c.65-2.37,2.7-3,3.58-5.11,1.62.45,2.34,2,2.39,4.38-1.83,0-1.44,2.63-3.58,2.19-.25-1.76,1.08-1.59.59-3.65-2.17-.71-.27,3.56-3,2.19m14.91,2.19c1-1.69.2-5.6,1.79-6.57.65.18.4,1.45,1.19,1.46-.65,2.12-.73,4.94-3,5.11m3.58-.73c.62-3-.59-5,2.39-5.84,1.32,2.15-.17,5.73-2.39,5.84m.6,2.92c1.89-1.83,3.69-3.75,3.57-8,1.8,1.89.33,11.94-3,12.41-.34-1.29.72-4.29-.59-4.38M336,118.09c-2.13-.31-2.88-2.33-3-5.11,2.65-.32,3.25,1.87,3,5.11m6.56,2.92c-1.94-.26-3.21-3.73-1.79-5.84,1.23,1.11,3.27,3.66,1.79,5.84m6.56.73c.28-2.62,1-4.22,0-6.57a2.91,2.91,0,0,0,2.38.73c-1.23,1.41.21,6.08-2.38,5.84m-14.31,2.92c-1.95-1.28-4-5.52-2.39-8.76,1.08,1.6,2.33,3,3,5.11.24,1.76-1.1,1.58-.6,3.65m4.76-4.38c-1.83,2.52-3.12-1.77-1.79-3.65,2.59-.28.93,3.52,1.79,3.65m-164-2.19a3.32,3.32,0,0,1,3-.73c-.11,2-1,3.1-3,2.92v-2.19m-1.19,6.57a9.19,9.19,0,0,1-.6-6.57c1.7.09.11,4.15,1.79,5.83-.7-.11-1.06.16-1.19.74m9.54,0c-.38-3.62,1.2-4.86,2.39-6.57,2.19,1-.3,6.25-2.39,6.57m-3.58.72c-2.55-2.83.5-5.15,3-5.83-.07,3.07-2.15,3.68-3,5.83M175.58,132c-.51-4.76.77-7.33,1.79-10.21,1.45,1.29,2.1,10-1.79,10.21m159.26-2.19c-2.84-.66-3.64-3.82-3.58-8,1.27,2.57,3.93,3.46,3.58,8m4.17-3.65c-2.38.49-2.39-1.92-2.38-4.37,2,0,2.28,2.07,2.38,4.37m-8.95,2.2c-3.17-.19-3.16-3.35-1.79-5.84,2.23,0,1.72,3.24,1.79,5.84m-146.73,1.45c.18-3.43,3.32-3.24,3.58-6.57,1.55,2.4-1.79,8.19-3.58,6.57m-3,.73c-2.26-2.82,1.74-4.16,2.38-5.83,1.16,1.45-1.36,4.62-2.38,5.83m158.66.73c-2.39,0-2.85-2.35-3-5.11,1.23,1.42,3.64,1.39,3,5.11m-165.82,3.65c-.51-1.16-.14-7.45,1.8-8-1,2.23-1,5.54-1.8,8m-26.83-6.56c1.37.74,2.77,1.46,3,3.64-1.21,1.33-4,3.38-6,1.46-1,4.84-3.48,7.9-5.37,11.68,3.3.71,3.89-7.78,7.75-8.76-3.37,7-6.18,14.8-13.12,17.51,0-11.19,8-18.84,13.73-25.53m182.51,1.45c1.52.38,2.31,1.24,2.39-1.45,1.32,2.26,3.95,2.94,3.58,7.29-2.86.34-2.3-3.52-4.18-4.38-1.15.08.7,2.44,0,4.38-1.78-.5-2-2.9-1.79-5.84m-143.15,6.57c-1.55-1.25-.26-5.12.6-5.84a4,4,0,0,1-.6,5.84m-4.78-1.46c-.08-1.81.95-2.26,1.2-3.65,2.47-.23,1.11,5.1-1.2,3.65m158.66,2.19c-2.85.08-3.57-2.43-3.57-5.84,1.44,1.64,4.57,1.22,3.57,5.84M175,137.78c-.35-4.07,2.24-4.54,4.17-5.83-1,2.38-1.38,5.61-4.17,5.83m-49.51,11.68c-.56-5.71,12.42-18.46,4.77-6.57,3.78-1.69,3.51-8.35,8.35-8.75-3.13,6.63-6.29,13.22-13.12,15.32m13.71,3.65c3.35-6.62,7.17-12.65,10.74-19,1.28,3.77-2.48,7.65-3.57,11,2.36,1.41,2.33-6.37,6-5.85-2.73,6.2-6.41,15-13.13,13.87M178,141.43c.86-1.86.57-5.14,1.8-6.56,2,2.12,1.05,6.44-1.8,6.56m4.77,0c-1.79-1.78.64-4.53,1.2-5.83,1.92,1.93-.51,4.68-1.2,5.83m-8.94,2.19c-2.56-1-.27-4.64-.6-7.29,2,.64-.11,3.44,2.39,4.38-.18,1.48-1.61,1.43-1.79,2.91m-23.26,5.11c.11-3.18,2.69-9.23,5.36-11.67,1.06,2.05-2.72,4.42-3,7.3,3.37-.74,2.73-6.39,6-7.3.39,5-4.24,9.81-8.35,11.67m189.07-5.84c-2.5,1.6-2.45-2.63-3-4.37,2.09-2.75,2.67,2.51,3,4.37m26.85,8c-.92-4.22-4.25-5.51-3.58-11.68,1.25.91,2.33,2,3.58,2.92.61,8.78,7.25,13.92,8.95,19-6.7-3.24-11.63-8.64-14.32-16.77,3,.73,2.66,5.5,5.37,6.56m-185.51-4.38c-2-.4-.34-2.82,0-4.38a2.53,2.53,0,0,0,1.79.73c.29,2.29-1.6,1.94-1.79,3.65m-4.76.73a19.52,19.52,0,0,0,1.19-4.38,2.5,2.5,0,0,0,1.79.73c-.26,2.11-1.26,3.33-3,3.65m-62-3.65c1.89,1,2,.16,4.18,0-2.57,4.9-5.56,9.25-7.76,14.59,2.61-.47,5.42-7,7.17-10.94.93,3.28-3,9.11-5.37,13.13-7.2,12.28-16.55,26.07-25.65,36.48,8.75-15.31,20.61-33.16,27.43-53.26m227.26,5.11c-1.54-1-3.38-1.71-3.59-4.37,1.53,1,4.53.29,3.59,4.37m-162.84,2.19c-1.8-.89.43-2.79.6-3.65,2.46.91-.23,2.12-.6,3.65M114.14,162.6c4-3.44,6.47-8.63,9-13.87a.91.91,0,0,1,1.2.73c-8.3,18.55-18.09,35.27-32.81,46,11.54-12.88,18.58-31.27,29.22-45.23-1.57,4.89-4.74,7.82-6.56,12.41m61.44-13.14c1.65-.25,1.4,5.51,3.58,2.19.42,1.52-2.85,4.75-5.37,5.11v-2.92c-2.59-.49-1.61,3.39-1.79,5.83-1.19.74-2.55,1.27-3,2.93-1.64-2.06,2.08-3.74,1.79-6.58-1.95-.18-1.73,2.28-3,2.92-1.87-5.22,6.64-7.91,7.76-9.48M339,153.84c-.35-1.29.73-4.29-.6-4.38,1.61-1.45,2.72,4,3.58,5.83-1.49.12-1.84-1.14-3-1.45m-217.11,8c3.19-1.05,6.34-8.21,8.95-12.4,1.33.75-.79,3.36,0,5.83-8.31,13.19-17.38,25.45-28.63,35,2.73-5.91,8.17-11.63,12.52-18.24s7.87-13.87,11.33-19c2.06,1.52-3.51,5.75-4.17,8.75M410,187.4c-4.21-13.57-13.81-20.55-14.91-37.94h4.17c6.9,20.46,16.69,41.38,26.24,56.91-2.43-.91-4.1-2.76-5.95-4.38-2.62-.53.47,1.45-1.19,1.46-10.25-7.34-16.6-22.32-23.87-34.29-2.05-3.39-7.05-6.79-4.77-11.68,3.27,1.12,3.1,6.43,6,8-.27-3.57-2.43-4.82-3.59-7.3,2.84-1.37,3.81,3.83,4.78,5.84,3.59,7.51,7.83,17.36,13.12,23.35m-88.28-27c3.61-6.67,10.37.46,13.73,2.92-1.91-3.26-4.42-5.79-6.57-8.75,2.22-.94,4-2.41,6.57-2.92-1.32,1.54.75,2.15.59,4.37-1.82,0-2.31-1.53-3.58-2.18-.5,5,5.86,1.6,5.36,6.56-1.87.36-1.34-2.24-3.57-1.46,0,3.46,3.94,3.26,6,2.19-1.63,4.11-.17,5.25,0,9.49-2.05-2.94-9.05-2.55-7.75-7.3-1.72.78-2,2.22-1.19,4.38-2.15.19-2.87-1.35-4.77-1.46.43-2.15,1.86-3.07,4.17-2.92-.6-1.21-2.53-.79-3.58-1.46-.27-1.56.85-1.39,1.79-1.46-.25-1.62-3.16-.56-3.58,0,1.32,2.73,1.12,3.77-.6,5.84.49,1.84,2.46,1.86,3.58,2.92-.08,2.08-2.49,1.33-4.17,1.46-.26-1.53.41-1.93.59-2.92a1.67,1.67,0,0,0-1.78,1.46c-1.59-1.82-.45-4.81-1.2-8.76m-139-6.56c16.18-9.5.86,22.4,11.34,23.34,0,1.21-6.56.71-8.95,1.47-1.22-1.18-1.38-3.67-1.19-6.57.94-.06,2.28.35,2.39-.74.58-3-3.56,1.34-3-2.91,1.46-.34,8,2.26,5.37-3.65a2.4,2.4,0,0,1-4.18,1.46c.77-2,3.06-2.1,3.59-4.38a77.31,77.31,0,0,1-5.38-8m162.83,5.1c-2.34.07-3.17-4.32-1.78-6.56,2.76-.47,1.52,4,1.78,6.56m-4.16,1.46c-2.75-1-3.26-4.76-4.77-7.29,2.39,1.44,4.47,3.28,4.77,7.29m-167.61,2.92c1.38-3.91,5.47-4.5,7.15-8,1.24.94,3,1.17,3,3.65-2,.2-4.84-.56-6,.73.55,1.29,2.1,1.34,3,2.19-.5,2.6-5.28,2.84-7.15,1.46m-10.74-1.46a5.69,5.69,0,0,1,.6-3.65c.48.51,1.64,1.14,1.79,0,1.43,1.09-.94,3.65-2.39,3.65m182.51,1.46c-1.84-.65-2.57-2.68-3-5.11,1.22,1.42,3.63,1.39,3,5.11m8.36,1.46c-3.31.65-3.9-2-3.57-5.84,3.13-.43,2.75,3.43,3.57,5.84m-172.37-2.92c1.59-2.43,3.91-2.4,5.36,0-1.39,2.2-4.25,2.81-5.36,0m211.14,12.41c-2.13-5.19-5-9.48-7.75-13.87.09-.85,1.09-.61,1.79-.73,7.94,14.85,16.82,28.55,25.64,42.32-6.63-4.23-12.14-11.42-17.29-18.24-5-6.57-11.26-13.71-12.53-22.62,4.15.61,5.91,10.22,10.14,13.14M164.25,167c-1.31-1.89,1-5.52,3-5.84.56,3.85-1.82,4.11-3,5.84m43.54,19.7c2.11-7.64-3.37-9.83-10.14-8.75,7-.33,13-5.84,9.54-14.6,1.91,2.34,1.77-1.54,3.58-1.46-1.18,1.38-.29,3.45,0,5.11-6.11,3.52.29,17-3,19.7M342.59,167c-1.45-.67-1.58-2.93-1.79-5.11,1.54.55,2.08,2.33,1.79,5.11m-40,21.16c6-8.59-1.56-15.31-1.19-25.53.66,1.62,1.05,3.57,3,3.64-5.3,15.85,20.07,20.58,17.89,4.38,3.69,3.87,5.59,6,6.56,12.4-6.1,1.16-14.5-4.44-22.07-1.46-2.81.46-1.05,6.5-4.18,6.57M349.75,167c-1.91-.09-2.63-1.66-2.39-4.37,2,0,2.28,2.07,2.39,4.37m-190.27,2.19c-.62-3.67,1.5-4,2.38-5.84,2.45,1.15.15,6.24-2.38,5.84m8.34,0c-2-2.55,1.39-4.6,2.39-5.84,1.61,2-1.87,4-2.39,5.84m184.9,5.11c-2.14-.54-2.71-3-3.57-5.11H348c-.25,2.89,1.39,3.93-.59,5.11.12.59.6.72.59,1.45,3-2.19,8.68-.92,8.36,5.11-2.3-.1-2.36-3-4.17-3.65-1.76.62.77,1.84,0,3.65-2-.18-1.22-3.86-3-4.38-1,.11.63,3.05,0,5.11-1.4-.23-1.33-2.26-2.39-2.91.23,5.32,7.25,8.64,10.15,13.12,1.19.25,1.86-.14,1.79-1.45,1.74.79,1.92,3.47,1.78,6.56-.19.82-2,.78-2.38,1.46-5.39,8.82.27,28.67,7.75,28.46-5.41-1.29-12.92-8.37-17.9-1.47-1.23-.19-.55-2.72-1.78-2.92,10.49,2.86,11.07-11.56,8.95-23.34-6.33-7.85-15.41-22.84-10.74-35,2.4.73,2.78,3.9,4.77,5.11,2,.11.92-1.28,3-2.19.32,2.22,2.21,4.95.58,7.3m-179.53-5.84a5.62,5.62,0,0,1,.6-3.65c1.88-.35,2.33,1,3.58,1.46-.6,1.7-2.05,2.35-4.18,2.19m5.37-2.19c.45-1.69,4.64-2.55,4.17.73-1.4,0-1.75,1.25-3.57.73.09-.85-.13-1.3-.6-1.46m-26.84,4.38c.61-1,.59-2.69,1.2-3.65,2.78.31,1.54,4.32-1.2,3.65m3.59.72c-.37-2.87,1.32-3.22,3-3.64-.26,2.11-1.26,3.33-3,3.64m7.15,47.43a3.45,3.45,0,0,0,1.79-2.19c1.14.08-.7,2.45,0,4.38-4.46-1.93-8-7.43-13.72-3.65,4.34-5.15,3-13.95,3.58-22.61a6.48,6.48,0,0,1-1.79-8c1.14.3,2.56.26,2.38,2.19-1.24.31-1.58-.5-2.38-.73v2.19c3.38,2.4,4.92-3.71,4.77-8,2.7,2.54,3.65-3,5.37-1.46-.73-5.26,1.4-7,3-9.49-.06-2.25-2.33,2.26-2.39,0v-2.91c.95-.06,2.28.35,2.39-.73,0,2.1,2.67,4.73,3.58,1.46-1.06,15.73-17.55,18.9-14.32,42.31,1.4,3.89,5.38,4.62,7.76,7.3m166.41-47.43c.36-4.23,4.39-2.49,7.16-2.18,1,1.63-4.95-.72-2.39,3.65a12.78,12.78,0,0,1-4.77-1.47m32.21,5.11c-3.76-.09-2.36-2.85-2.38-6.56,2.15.53,2.66,3.06,2.38,6.56m-202.2-.73c.65-1.63,1-3.65,1.79-5.1.88.62.86,2.35,1.19,3.65-1.84-.55-1.14,2-3,1.45m181.32-2.91c-1,1.44-5.91,1.44-4.76-2.19,2.69-.62,3,1.71,4.76,2.19m-186.69,0c1.3,1.37,4.2.28,4.77-1.47,1.63,1.58-1.4,3.6-1.79,5.11-3.52-2.48-3,4.05-6.56,3.65.69-3,3-4.12,3.58-7.29M212,181.56c-3.2-.66-1.62-8.19-.61-10.22,1.38,2,.22,7,.61,10.22m117.5-8c-.62,1.64-4,.58-3.58-1.45,2.06-.58,2.51.81,3.58,1.45m-28.63,11.68a107.14,107.14,0,0,0,0-10.94c2.74-1.88,3.69,10.63,0,10.94m27.43-8c.09-1.59,1.51-1.57,3-1.46-.43,1.49-1.8,3-3,1.46m-169.39,4.38c-1.87-1.86.53-4.65,2.38-4.38.74,3.33-2.09,2.31-2.38,4.38m-1.19-3.64c-.83,7.18-5.21,1.83,0,0m197.43,5.83c2-1,2.3-4,3.58-5.83a165,165,0,0,1,6.55,15.31c-1.15,1.85-2.81-1.85-4.17-2.19.21-4.38-.83-7.25-2.38-9.48-1.54,1.45,1.59,3.34.6,6.57-1.06-.66-1-2.69-2.39-2.92,0,1.72,1,2.15.59,4.38-3.14.92-.74-4.93-2.38-5.84M147,188.13c1.7-4,5-6,7.16-9.48.65,4-3.75,8-7.16,9.48m-14.32,15.32c2.91-7.4,9-17.23,15.51-22.62a108.55,108.55,0,0,1-15.51,22.62M350.35,183c.59-2,2.4-.94,3.57-.73v3.65c-2.25.31-2.11-2.28-3.57-2.92M120.7,212.94c4.29-12.77,15.7-16.8,19.69-29.92,1.29,1.4-.68,5-2.39,5.11-1.82,5.16-5.05,9.32-7.75,13.86-2.33,3.9-4.26,10.73-9.55,10.95m270.2,5.83C381,215,375.52,197.7,370,185.94c5.92,12.22,14.35,21.36,20.88,32.83m-266.61-4.38c12-4.06,14.72-21.68,25-25.53,3.75,6.89,6.51,30.19-5.36,28.45-1.68,8.29-15,8.1-20.28,3.65a19.5,19.5,0,0,0,.6-6.57m253.49-6.57c-6.28.38-8.83-10.1-11.33-16.78a6.1,6.1,0,0,1,3.57,4.38c1.8-.48-.56-1.55,0-2.92,3.71,3.74,5.43,9.9,7.76,15.32m-17.89,12.41c-1.48-9.51-1.28-18.45,3-24.08,1.32.57,2.33,1.54,4.18,1.46,3.12,11.25,12.18,15.24,17.89,23.35,1.87.82,1.35.06,3.58,0-1.6,3.08-2.13,5.75-.6,9.48-4.72,3.64-12.73,1.91-17.3-.73a19,19,0,0,0-.6-6.57c-3.74-.69-7.73.63-10.13-2.91m-201-13.86c-1.55-2.78,2.75-4.55,4.17-2.2-.47,2.54.9,2.81.6,5.11,1.39-.22,2.46-1.42,3.58,0,.59,2.92-1.78,2.2-1.19,5.11-2.72-.89-2.34,2-4.78,1.46-.26-.65-.52-1.31-1.19-1.46.78-2.69,3.86-5.64,1.79-9.49-1.84-.54-.72,2.53-3,1.47m0,6.57c-1.78-.51-2-2.91-1.79-5.84,1.44.67,1.57,2.93,4.17,2.18.26,2.5-1.78,2.2-2.38,3.66m40,16C210.42,210,179.76,204.29,169,213.67c11.92-14,51.7-4.32,35.79,21.88-1-5.59,3.24-7.51.59-10.94-4.36-1.67-4.36,5.82-6.56,4.37M346.76,218c.72-3.28,1.25-10.61,4.77-8-2.79.92-4,4.11-3,10.21h-3c.67-3.49-1.85-3.08-1.18-6.56,2.5-.63,1.3,3.26,2.38,4.37m38.18-.73c-2.05.3-5-4.54-6-8,2.26,2.33,3.17,6.32,6,8M302,232.63c.15-21.23,26.24-25.54,38.77-14.59-10.23-7.93-37.24-5-28,13.13,1.43.29-.32-3.32,1.8-2.19a3.33,3.33,0,0,1-6,2.93c-.74-2.79.53-3.53-.6-5.85-5-.36-1.83,8.24-3,10.95-2.52.65-3.36-.74-4.17-2.19-3.26,3,1.55,6.87,3,8.75-3.47,2.52-5.1-3.48-5.37-7.29-1.92-.66-.84,2.38-1.79,2.92-1.71-.11-1.09-3-1.19-5.11,2.42,3.22,5.1-3.93,5.37-8,1.52.82-.24,5.65,1.19,6.57M121.9,226.8c-2.47.57-5.49-4.47-4.78-10.22,1.4-1.55,3.87-3.27,5.37-.73.64,2.72-1.48,2.08-1.19,4.38,3,8.19,16.85,4.33,22.07,5.83,4.67-1.07,7.46-7,11.94-7.29,3.93-.22,6.78,5.11,11.32,2.92a2,2,0,0,0,1.19,2.19c-.77,3.91-5.32,3.22-8.34,4.37-.17,1.18.56,1.26.59,2.19,1.58,2.1,7.1-.45,8.35,3.65-.82,1.67-4.15.27-6,.73a16.34,16.34,0,0,1,.59,5.84c-1.55,1.73-5,3.35-5.36-.73,2-.63,4.5,3.51,4.17-3.65-.74-2-3-2.11-4.17-3.65-.44-2.23.61-2.66.59-4.38-2.61-.53-2.39,2.43-2.39,5.11-3.37-.39-1.5-3.16-2.38-5.84,3.55-.27,5.65-2.32,8.35-3.64-4.12-.59-11.14,3.56-15.5,2.92.41,2.64,4.34,1,6.56,1.45-13,3.8-30.48,5.37-33.41-10.94-3.35,2.67.29,8.69,2.39,9.49m229-11c-.43-2,2.81.53,2.39-1.46,2.05.53.39,2.19,0,3.65-1.92.64-1.23-1.9-2.39-2.19M339,221.69c.59-2.29,3.91-4,6-2.19a12.75,12.75,0,0,0-3,4.38c-1.05-.66-1.73-1.76-3-2.19m-167.6,2.19c-.82-1.18-2.85-.91-2.39-3.65,1.88-.11,2,1.87,2.39,3.65m178.94,1.45c7.21,4.31,13.56,9.68,23.86,10.22-1.42-1.18-3.62-1.42-5.38-2.19,5.83-1.27,22.51,5.9,23.26-8a1.49,1.49,0,0,0-3,0c-1.64-1.56,1.3-3.69,3.57-2.92,4,20.88-29.23,16.64-40,10.22-1.36,2.85.8,2.65,2.4,3.65-4.11,1.31-8.9,1.77-8.36,8.76.77,2.92,2.84-2.17,3,0-1.82,8.15-5.6-3.6-2.39-6.57-2.05-2-2,3.5-5.37,2.19.13-4.48,3.61-4.83,7.16-5.11-.95-2.73-4-2.82-5.37-5.11-.09-1.82.94-2.26,1.2-3.64,9.67,3.24,15.9,10.33,26.84,10.21-7.36-3.66-16.64-4.95-21.47-11.68M212.56,226.8c1.72.57,5.23-.33,3-2.19.75-2,4,3.26,1.2,3.64a10,10,0,0,1,4.77,11.68c-2.33-1.53-4.63-3.09-4.77-7.3-2.25,1.08-3.84-2.43-4.18-5.83M280,239.93c10.83.36,9-14.78,18.49-16.05-2.47,3.46-4.62,1.66-6,5.1-1.86,4.77,1.81,13.34-4.18,15.32-1.8-1.79.45-4.74,0-7.29-2.67,2.27-8.05,7.23-11.33,2.19-.37-3.13.53-4.7,1.79-5.84.21,1.25-.93,4.63,1.19,6.57m87.67-7.3c-4.75-1.23-8.33-3.9-11.92-6.57,3.45-.06,8.88,3.73,11.92,6.57m-72.76.73c-1.33-1.21,1-4.07,3-3.65a7.11,7.11,0,0,1-3,3.65m-147.32-1.45c-6.66,2.17-7.89-.92,0,0m63.22,5.83c.32-2,.88-3.79,1.2-5.83,1.68,2.16.72,8.11-2.39,10.21-1.76,1.18-10.42.83-5.37,0,2.44-1.15,3.92-3.49,6.56-4.38m43.54-167.8c1.07-.1,1.26.89,2.39.72.18,1.93-1.25,1.89-2.39,2.19Zm-10.73,32.83c-1.75,0-1.31,2.77-3.58,2.19-5.73-3.51-8.47.92-14.32-1.47-2,2.18-1.89,5.05-.59,8,2.61,1,4.93-2.18,6.56,0-21.17,36.2-12,91.92,25.65,92.66,17.24.33,33.09-15.23,34-37.94-6.79-.46-15.27,1.16-19.1-2.91.11-21.77,6-36.43,11.94-51.08,3.59-1,4.18,1.7,7.16,1.46,2.56-1.82,2.22-8.35-.6-9.48-3.49,2.3-7,3.39-9.55-.74-2.7,3.23-6.56,2-9.54,0-2.23,0-1.81,3.16-4.77,2.19-2.69.13-2.91-2.76-5.37-2.91-2.4-.51-1.46,3.07-3.58,2.91-4.8-5.44-9.28,1.7-14.31-2.91m8.95,7.29c-.44-2.23,1-2.15.59-4.38-1.13-3.06,2.71,4.8-.59,4.38m9.54.73c-1.45-1.4.86-3.8-.6-5.83,1.82.05,1.4,4.77.6,5.83m-36.39-5.11c1.25-.3,1.59.51,2.38.73.29,2.29-.51,3.27-2.38,2.92Zm47.12,4.38c-1.31-.09-.26-3.09-.6-4.38,1.64,0,1.43,3.44.6,4.38M234,107.14c-4.3,2.87-4.65-3,0,0m3.57.74c.38-2.53,5.2-1.46,5.37.73-2-.61-2.77.09-5.37-.73m9.55-.74h4.17c.48,2.78-2.82.93-4.17,1.47Zm8.35,1.47c-.17-2,4.2-2.09,4.77-.73-.37,2.85-1.84,0-4.77.73m9.54-.73c1.59-.18,5-1.87,6,1.45-1.82-.69-6,1.57-6-1.45m14.91,0c0,3-4.6,2.67-5.37,0H280m3.58,1.45c.2-2.37,4.89-1.67,6-.72-.21,2.37-4.9,1.67-6,.72M235.82,113a3.88,3.88,0,0,0,.6-2.19,10.71,10.71,0,0,1,5.37.73,4.15,4.15,0,0,1-6,1.46m9,0c.31-2.54,3.9-1.07,6-1.46-1,3.09-3.6,3-6,1.46m8.95,0c.3-2.43,5.36-1.66,6.56-.73-.78,2.93-5,2.54-6.56.73m16.7-.73c-.93,1.9-6.12,3.86-6.56,0h6.56m8.95.73c-.47,1.75-5.84,2.76-5.37-.73,1.86.15,4.37-.49,5.37.73M225.09,135.6c1-9.17,4.43-15.49,7.16-22.62,3.27.82,4,3.58,7.75,2.19-4.33,7.08-3.55,26.63-14.91,20.43m20.28,1.46c1.57-8.78,4.83-15.5,6.56-24.08,1.33,1.57,4.93,4.15,7.15,2.19-2.5,6.17-3.38,27.62-13.71,21.89m-10.14-1.46a207.92,207.92,0,0,1,7.15-21.89c2.61.7,3.93,3,7.75,2.19C247,122.27,245.76,131,243,137.78c-3.46.35-6.27-.1-7.75-2.18m19.09,1.46q3.45-11.46,7.15-22.62c2.66.75,6,2.54,8.95.73-4.36,7.78-3.64,28.8-16.1,21.89m11.32,0c1.28-8.66,4.21-15.28,6.56-22.62,2.44,1.84,4.78,2.68,8.35,1.46-5,6.28-3.86,27-14.91,21.16M222.7,157.48c-1.65-6.93.68-14.52,1.79-20.42,2.1,1.25,5.75,2.25,8.35.72-1,7.44-2,10.77-1.79,19-2.3,2.34-5.41,2.47-8.35.72m10.14.73c-.45-8.09.87-14,1.79-20.43,2.12,1.42,5.56,3.05,8.35,1.46-1.33,5.9-2.18,12.42-3,19-1.9,1.55-5.42,2.07-7.16,0m29.23,1.46c-.12-8.18,1.95-13.65,2.39-21.15,2.33.79,4.37,1.94,7.74,1.46-1.12,6.39-2.14,12.94-3,19.69-1.69.76-5.59,1.4-7.16,0M241.79,159a114.59,114.59,0,0,1,3-19.71c1.8,0,5.11,2,6.56,0,.85,5.43-2.14,12.45-1.78,19.71-2.57,1.78-5.13,1.29-7.76,0m9.54,0c-.49-8.15,1.31-13.48,2.39-19.71a12.16,12.16,0,0,0,9.54,0,148.93,148.93,0,0,0-3,20.43c-2.42,1.14-7.28,1.24-8.95-.72m-25.65,18.23c-2-5.09-3-11.44-3.57-18.23,2.06,1.2,5.94,2.49,7.75,0,1.44,6.45.46,11.92,2.39,18.23-1.84,1.89-4.24-.21-6.57,0m9.55,2.19c-1.81-5.08-2.73-11.25-2.39-19a8.76,8.76,0,0,0,7.16,0c-.35,7.24.63,12.85,1.19,19-1.57,1.71-4.07.12-6,0m9.54,1.46c-2.49-6-2.83-12.14-3-19.7a11.73,11.73,0,0,0,7.76,0,74,74,0,0,0,2.38,19c-1.45,1.4-4.8.46-7.16.73m10.14-.73c-2.39-4.86-3.18-11.68-4.17-18.24,2.86-1,5.92,2.27,8.95-.73.83,6,2.26,11.34,3,17.52-3,1.45-5.39,2.49-7.75,1.45m10.73-2.19a32.52,32.52,0,0,1-3.57-16.78,10,10,0,0,0,7.76,0c-1,4.29,1.69,10,3,13.87a10,10,0,0,1-7.16,2.91m22.67-8.75c-.61,11-15.26,9.77-15.51-.73a103.38,103.38,0,0,0,15.51.73M274,175.72c4.44,4.8,11.4,4.5,14.31-2.19,2,13.41-16.32,17.4-21.47,6.57,2.08-1.83,6.35-1,7.16-4.38m-47.12,3.65c1.42-.44,4.32.92,4.77-.72,2.83,4.06,3.34,11,6.56,14.58-4.82-.42-9.31-7.58-11.33-13.86m36.38,0c3.56,5.39,9,12.32,17.29,9.49-3.6,11.66-21.37,2.76-24.44-5.84,1.28-2.3,5.79,0,7.15-3.65m-6.56,21.16c-12,2.46-17.37-9.4-20.88-19.7,1.34,1.43,4.49.64,6,0,3.06,8.9,6.89,16.86,14.91,19.7m-3.58-19c2.76,9.27,8.6,14.78,17.3,16.78-11.57,4.2-21.28-5.91-25.05-16.05,2.55.85,4.75-.29,7.75-.73M353.33,129c-1.3,2.58,3.62,7,4.17,7.29-1.26-2.6-2.32-5.44-4.17-7.29" transform="translate(-10 -22.81)"/></svg>